<svg width="32" height="32" viewBox="0 0 32 16" fill="none" xmlns="http://www.w3.org/2000/svg">
<path d="M6.40001 7.2L16 11.2L16 8.8L22.4 8.8L12.8 4.8L12.8 7.2L6.40001 7.2ZM7.55946e-06 1.6C7.57927e-06 1.14667 0.153606 0.766404 0.460806 0.459204C0.768007 0.152004 1.14774 -0.00106248 1.60001 4.20749e-06L27.2 5.3265e-06C27.6533 5.34632e-06 28.0336 0.153605 28.3408 0.460805C28.648 0.768005 28.8011 1.14774 28.8 1.6L28.8 4.8L32 4.8L32 11.2L28.8 11.2L28.8 14.4C28.8 14.8533 28.6464 15.2336 28.3392 15.5408C28.032 15.848 27.6523 16.0011 27.2 16L1.60001 16C1.14667 16 0.766406 15.8464 0.459207 15.5392C0.152007 15.232 -0.00106114 14.8523 6.99995e-06 14.4L7.55946e-06 1.6Z" fill="white"/>
</svg>
