<svg width="40" height="40" viewBox="0 0 40 40" fill="none" xmlns="http://www.w3.org/2000/svg">
<path d="M33.9286 0C33.6065 0 33.2977 0.131696 33.0699 0.366117C32.8422 0.600537 32.7143 0.918479 32.7143 1.25C32.7143 1.58152 32.8422 1.89946 33.0699 2.13388C33.2977 2.3683 33.6065 2.5 33.9286 2.5H37.5714V9.375H36.3571C36.0351 9.375 35.7262 9.5067 35.4985 9.74112C35.2708 9.97554 35.1429 10.2935 35.1429 10.625C35.1429 10.9565 35.2708 11.2745 35.4985 11.5089C35.7262 11.7433 36.0351 11.875 36.3571 11.875H37.5714V18.75H33.9286C33.6065 18.75 33.2977 18.8817 33.0699 19.1161C32.8422 19.3505 32.7143 19.6685 32.7143 20C32.7143 20.3315 32.8422 20.6495 33.0699 20.8839C33.2977 21.1183 33.6065 21.25 33.9286 21.25H37.5714V28.125H36.3571C36.0351 28.125 35.7262 28.2567 35.4985 28.4911C35.2708 28.7255 35.1429 29.0435 35.1429 29.375C35.1429 29.7065 35.2708 30.0245 35.4985 30.2589C35.7262 30.4933 36.0351 30.625 36.3571 30.625H37.5714V37.5H33.9286C33.6065 37.5 33.2977 37.6317 33.0699 37.8661C32.8422 38.1005 32.7143 38.4185 32.7143 38.75C32.7143 39.0815 32.8422 39.3995 33.0699 39.6339C33.2977 39.8683 33.6065 40 33.9286 40H38.7857C39.1078 40 39.4166 39.8683 39.6443 39.6339C39.8721 39.3995 40 39.0815 40 38.75V1.25C40 0.918479 39.8721 0.600537 39.6443 0.366117C39.4166 0.131696 39.1078 0 38.7857 0L33.9286 0ZM18.1429 3.75L19.0269 2.8925C18.9133 2.7684 18.7763 2.66952 18.6243 2.60193C18.4723 2.53434 18.3085 2.49947 18.1429 2.49947C17.9773 2.49947 17.8134 2.53434 17.6614 2.60193C17.5094 2.66952 17.3724 2.7684 17.2589 2.8925L17.254 2.8975L17.2394 2.915L17.186 2.9725L16.9917 3.1925C15.9179 4.41932 14.886 5.68425 13.8977 6.985C12.0301 9.4425 9.73514 12.7975 8.10557 16.3025C6.89371 18.91 6 21.705 6 24.3325C6 31.535 11.372 37.5 18.1429 37.5C24.9137 37.5 30.2857 31.535 30.2857 24.3325C30.2857 21.7075 29.392 18.91 28.1801 16.3025C26.5506 12.7975 24.2556 9.4425 22.388 6.985C21.3402 5.60631 20.2434 4.2679 19.0997 2.9725L19.0463 2.915L19.0317 2.8975L19.0269 2.895L18.1429 3.75ZM18.104 5.665L18.1429 5.6175L18.1817 5.665C18.7646 6.35 19.5709 7.3325 20.4743 8.525C21.9581 10.4775 23.68 12.965 25.091 15.5925H11.1971C12.6057 12.965 14.33 10.4775 15.8114 8.525C16.7173 7.3325 17.5236 6.35 18.104 5.665ZM8.42857 24.3325C8.42857 22.445 9.02114 20.3025 9.978 18.0925H26.3077C27.267 20.3025 27.8571 22.445 27.8571 24.3325C27.8571 30.2925 23.442 35 18.1429 35C12.8437 35 8.42857 30.2925 8.42857 24.3325Z" fill="white"/>
</svg>
