<svg width="26" height="25" viewBox="0 0 26 25" fill="none" xmlns="http://www.w3.org/2000/svg">
<path d="M5.51551 2.52998C5.78851 2.63534 6.08565 2.70409 6.32987 2.8532C6.89629 3.19874 7.44229 3.57643 7.98643 3.95412C8.13872 4.06037 8.25015 4.06305 8.42193 3.98716C8.91408 3.7684 9.41458 3.56125 9.92436 3.38535C10.1398 3.31124 10.2382 3.21214 10.2744 2.99963C10.3821 2.36301 10.5001 1.72728 10.6301 1.09422C10.7675 0.429922 11.3042 0.00937524 12.009 0.00401796C12.6692 -0.00133932 13.3294 -0.00133932 13.9896 0.00401796C14.6963 0.0102681 15.2321 0.42635 15.3704 1.09065C15.5023 1.7237 15.6174 2.35944 15.727 2.99606C15.7632 3.20589 15.8551 3.30589 16.0752 3.38089C16.5859 3.55411 17.0846 3.76572 17.5767 3.98537C17.7466 4.06126 17.859 4.06394 18.0122 3.9568C18.5471 3.58536 19.0912 3.22642 19.6363 2.86838C20.29 2.4389 20.9651 2.49426 21.525 3.02463C21.9791 3.45411 22.4313 3.88626 22.8761 4.32466C23.3961 4.83628 23.4573 5.49344 23.0376 6.08989C22.6616 6.62472 22.279 7.15599 21.8862 7.67921C21.7766 7.82565 21.7738 7.93368 21.8528 8.09797C22.0849 8.58192 22.3031 9.073 22.4935 9.57301C22.5641 9.75784 22.6551 9.83641 22.8482 9.86766C23.5214 9.97749 24.1937 10.0927 24.8623 10.2212C25.5531 10.3534 25.9886 10.8668 25.9951 11.5463C26.0016 12.1811 26.0016 12.816 25.9951 13.4508C25.9886 14.1294 25.5531 14.6446 24.8632 14.7785C24.1937 14.908 23.5214 15.0223 22.8491 15.1321C22.6569 15.1633 22.5641 15.241 22.4944 15.4258C22.3041 15.9259 22.0858 16.4178 21.8537 16.9009C21.7748 17.0652 21.7757 17.1732 21.8862 17.3196C22.2725 17.8339 22.6458 18.3572 23.0181 18.8813C23.4648 19.5108 23.4053 20.1581 22.8528 20.6983C22.4146 21.1269 21.9716 21.5528 21.5259 21.9742C20.9641 22.5055 20.2918 22.5617 19.6372 22.1314C19.0921 21.7733 18.548 21.4144 18.0131 21.0438C17.8599 20.9376 17.7476 20.9376 17.5776 21.0144C17.0966 21.2296 16.6101 21.4421 16.1077 21.6046C15.8421 21.6903 15.7558 21.8323 15.7149 22.0689C15.6119 22.6725 15.5004 23.2751 15.376 23.8752C15.2293 24.5814 14.7028 24.9922 13.9544 24.9966C13.3053 25.0002 12.6571 25.002 12.0081 24.9966C11.3033 24.9904 10.7666 24.5698 10.6301 23.9073C10.4991 23.2743 10.3821 22.6385 10.2744 22.0019C10.2382 21.7894 10.1398 21.6903 9.92436 21.6162C9.41458 21.4403 8.91408 21.2331 8.42193 21.0144C8.25108 20.9385 8.13872 20.9403 7.98643 21.0465C7.45158 21.418 6.90744 21.7769 6.36144 22.134C5.70587 22.5626 5.03172 22.5046 4.47272 21.9742C4.02794 21.5519 3.58408 21.1269 3.1458 20.6983C2.59423 20.1599 2.53666 19.5108 2.9833 18.8822C3.35565 18.3581 3.72801 17.8339 4.1143 17.3205C4.22573 17.1723 4.22294 17.0643 4.14494 16.9018C3.92208 16.4384 3.70294 15.9705 3.53208 15.4883C3.44294 15.2348 3.29715 15.1482 3.0483 15.1098C2.42058 15.0124 1.7938 14.9053 1.1698 14.7865C0.434373 14.6464 0.00723057 14.1392 0.00351629 13.4204C-0.000197988 12.7963 -0.00205513 12.1731 0.00351629 11.549C0.0100163 10.8704 0.445516 10.3552 1.13637 10.223C1.77151 10.1016 2.40944 9.99267 3.04923 9.89356C3.29901 9.85516 3.44294 9.76677 3.53208 9.51408C3.70294 9.03193 3.92208 8.56406 4.14494 8.10065C4.22387 7.93726 4.22573 7.82922 4.1143 7.68189C3.72801 7.16759 3.35473 6.64347 2.98237 6.12025C2.53573 5.49166 2.59423 4.84164 3.14487 4.30413C3.59244 3.8684 4.04651 3.43803 4.49594 3.00409C4.76987 2.73891 5.09487 2.59248 5.51365 2.53176L5.51551 2.52998ZM8.14522 19.8706C8.28822 19.9242 8.40615 19.9652 8.52129 20.0117C9.23536 20.2947 9.94572 20.5885 10.6654 20.8572C10.9281 20.9554 11.0897 21.0876 11.1371 21.3688C11.2615 22.1046 11.4091 22.8359 11.5466 23.5698C11.6209 23.9689 11.7286 24.0618 12.1436 24.0636C12.6999 24.0653 13.2551 24.0645 13.8114 24.0636C14.2803 24.0636 14.3778 23.9814 14.4586 23.5475C14.5932 22.8251 14.7399 22.1046 14.8634 21.3796C14.9136 21.0858 15.0816 20.9519 15.3602 20.851C16.0613 20.5956 16.7586 20.3286 17.4374 20.0242C17.7513 19.8831 17.9927 19.8849 18.2703 20.0769C18.8906 20.5063 19.5258 20.9144 20.1488 21.3403C20.4209 21.5269 20.6466 21.5144 20.8824 21.2778C21.2826 20.876 21.7005 20.4894 22.1081 20.0938C22.4025 19.809 22.4127 19.6795 22.1694 19.3411C21.7283 18.7277 21.2891 18.1134 20.8416 17.5045C20.6744 17.2777 20.6846 17.0705 20.7998 16.8196C21.1164 16.1303 21.4126 15.4312 21.6996 14.7303C21.798 14.4901 21.9336 14.3419 22.2103 14.2972C22.9866 14.1731 23.7582 14.0258 24.5336 13.899C24.8716 13.8437 25.0424 13.6892 25.0322 13.3401C25.0155 12.7945 25.0285 12.249 25.0276 11.7025C25.0266 11.2739 24.9375 11.1748 24.5094 11.1007C23.7582 10.9704 23.0088 10.8257 22.2548 10.7123C21.9317 10.6632 21.7924 10.4962 21.6838 10.2168C21.4256 9.55248 21.1526 8.88996 20.8369 8.24976C20.6818 7.93547 20.6837 7.69796 20.8936 7.42117C21.3421 6.82651 21.7673 6.21578 22.2075 5.61577C22.3895 5.36665 22.3783 5.15236 22.1443 4.93539C21.72 4.54074 21.2984 4.14162 20.8917 3.73001C20.6428 3.47911 20.4126 3.48 20.1303 3.67465C19.4998 4.10859 18.8553 4.52378 18.223 4.95504C17.976 5.1229 17.7541 5.11308 17.4801 4.99611C16.7754 4.69342 16.0594 4.41306 15.3389 4.1443C15.0742 4.04608 14.9154 3.91037 14.8681 3.63179C14.7418 2.89695 14.5951 2.16479 14.4586 1.43084C14.3843 1.03262 14.2766 0.940649 13.8606 0.938863C13.3164 0.937077 12.7714 0.93797 12.2272 0.938863C11.7072 0.938863 11.6301 1.00494 11.541 1.48709C11.4091 2.19872 11.2624 2.90856 11.1408 3.62197C11.0906 3.91483 10.9226 4.04966 10.6449 4.15144C9.94386 4.40681 9.2465 4.67378 8.56772 4.97736C8.25386 5.11843 8.01243 5.11754 7.73479 4.92557C7.10522 4.48985 6.46358 4.07198 5.82751 3.64429C5.58144 3.47911 5.36415 3.48804 5.1478 3.70143C4.72715 4.11573 4.30465 4.52824 3.87008 4.92914C3.62215 5.15861 3.62123 5.37469 3.81344 5.63452C4.25637 6.23275 4.68072 6.84437 5.12737 7.43992C5.32794 7.70779 5.32051 7.94172 5.17472 8.24173C4.8618 8.88371 4.57951 9.54176 4.32694 10.2078C4.21365 10.5061 4.05765 10.6695 3.72894 10.7204C2.97494 10.8364 2.22651 10.9811 1.47344 11.1034C1.13544 11.1579 0.963658 11.3114 0.973872 11.6606C0.990586 12.1945 0.977586 12.7293 0.978515 13.2642C0.978515 13.7383 1.05651 13.8231 1.53194 13.9044C2.28316 14.0329 3.03344 14.1722 3.78558 14.2937C4.07623 14.3401 4.21273 14.499 4.31394 14.7526C4.58694 15.4357 4.87015 16.116 5.18587 16.7812C5.3233 17.0696 5.32608 17.2955 5.13387 17.5527C4.68165 18.1581 4.24801 18.7777 3.80044 19.3867C3.61751 19.6367 3.62773 19.8483 3.86173 20.0661C4.28608 20.4608 4.70765 20.8599 5.11437 21.2715C5.36229 21.5224 5.59351 21.5233 5.87579 21.3287C6.49701 20.901 7.12751 20.4858 7.75801 20.0706C7.87872 19.9911 8.01708 19.9376 8.14708 19.8715L8.14522 19.8706Z" fill="#B29750"/>
<path d="M13.0154 18.0502C9.79138 18.0502 7.22388 15.5715 7.22852 12.4634C7.23316 9.416 9.8248 6.94897 13.0219 6.94897C16.1929 6.94897 18.7836 9.44993 18.7744 12.5036C18.7651 15.5742 16.1939 18.051 13.0154 18.0502ZM13.0061 17.1162C15.6312 17.1198 17.7892 15.0626 17.8012 12.5455C17.8133 9.97227 15.6757 7.88382 13.0302 7.88382C10.3504 7.88382 8.20631 9.92852 8.20074 12.4875C8.19516 15.0492 10.3374 17.1126 13.0061 17.1162Z" fill="#B29750"/>
</svg>
