<svg width="45" height="45" viewBox="0 0 45 45" fill="none" xmlns="http://www.w3.org/2000/svg">
<path d="M44.9995 26.3208H35.4476C34.6035 26.3199 33.7941 25.9746 33.1972 25.3606C32.6002 24.7466 32.2645 23.9141 32.2637 23.0458V6.67117C32.2645 5.80287 32.6002 4.97038 33.1972 4.3564C33.7941 3.74242 34.6035 3.39711 35.4476 3.39624H44.9995V6.67117H35.4476V23.0458H44.9995V26.3208Z" fill="white"/>
<path d="M26.321 5.9434C28.1967 5.9434 29.7173 4.61292 29.7173 2.9717C29.7173 1.33047 28.1967 0 26.321 0C24.4453 0 22.9248 1.33047 22.9248 2.9717C22.9248 4.61292 24.4453 5.9434 26.321 5.9434Z" fill="white"/>
<path d="M13.0184 29.5212V16.1321H9.9052V29.5212C8.86662 29.9071 7.99128 30.6665 7.43389 31.6652C6.87651 32.6638 6.67297 33.8374 6.85925 34.9785C7.04553 36.1196 7.60964 37.1548 8.45187 37.9011C9.2941 38.6473 10.3602 39.0566 11.4618 39.0566C12.5634 39.0566 13.6295 38.6473 14.4717 37.9011C15.314 37.1548 15.8781 36.1196 16.0644 34.9785C16.2506 33.8374 16.0471 32.6638 15.4897 31.6652C14.9323 30.6665 14.057 29.9071 13.0184 29.5212Z" fill="white"/>
<path d="M11.4623 45C9.20607 45.0025 6.99942 44.3506 5.11941 43.1262C3.23939 41.9017 1.76982 40.1594 0.895228 38.1179C0.0206356 36.0763 -0.219987 33.8267 0.203575 31.6514C0.627137 29.4761 1.696 27.4721 3.27595 25.8911V8.03571C3.27595 5.90451 4.13843 3.86059 5.67367 2.35361C7.2089 0.846617 9.29112 0 11.4623 0C13.6334 0 15.7156 0.846617 17.2509 2.35361C18.7861 3.86059 19.6486 5.90451 19.6486 8.03571V25.8911C21.2285 27.4721 22.2974 29.4761 22.721 31.6514C23.1445 33.8267 22.9039 36.0763 22.0293 38.1179C21.1547 40.1594 19.6851 41.9017 17.8051 43.1262C15.9251 44.3506 13.7185 45.0025 11.4623 45ZM11.4623 3.21429C10.16 3.21556 8.9114 3.72394 7.99054 4.62786C7.06968 5.53177 6.55177 6.75738 6.55047 8.03571V27.2941L6.0069 27.7746C4.77057 28.8593 3.89896 30.287 3.50743 31.8686C3.1159 33.4503 3.22291 35.1114 3.81431 36.632C4.40571 38.1526 5.45361 39.4611 6.8193 40.3843C8.18499 41.3074 9.80408 41.8017 11.4623 41.8017C13.1204 41.8017 14.7395 41.3074 16.1052 40.3843C17.4709 39.4611 18.5188 38.1526 19.1102 36.632C19.7016 35.1114 19.8086 33.4503 19.4171 31.8686C19.0256 30.287 18.154 28.8593 16.9176 27.7746L16.3741 27.2941V8.03571C16.3728 6.75738 15.8548 5.53177 14.934 4.62786C14.0131 3.72394 12.7646 3.21556 11.4623 3.21429Z" fill="white"/>
</svg>
