<svg width="51" height="50" viewBox="0 0 51 50" fill="none" xmlns="http://www.w3.org/2000/svg">
<path d="M30.3233 4.3466C29.01 3.83936 27.6968 3.5012 26.3357 3.26871L32.2813 0.5L34.4303 6.60807C33.1803 5.69685 31.7992 4.93639 30.3233 4.3466ZM12.5105 6.03742C11.3405 6.77715 10.3138 7.62256 9.43028 8.57364L9.69293 2.61352L16.7607 4.07185C15.2803 4.49455 13.8477 5.17088 12.5105 6.03742ZM40.9489 17.1757C40.734 15.9498 40.4236 14.724 39.9699 13.5827L45.6528 16.753L40.7579 21.4661C41.0205 20.0712 41.0683 18.634 40.9489 17.1757ZM5.22779 20.5362C5.39494 21.8043 5.72923 23.0301 6.15903 24.1503L0.5 20.98L5.37106 16.2668C5.13228 17.6406 5.06065 19.099 5.22779 20.5362ZM37.797 45.6659C37.797 47.7583 35.9585 49.4491 33.6662 49.4491C31.3978 49.4491 29.5592 47.7583 29.5592 45.6659C29.5592 43.1719 33.6662 38.9449 33.6662 38.9449C33.6662 38.9449 37.797 43.1719 37.797 45.6659ZM12.3672 44.0596C12.1285 43.2565 12.6538 42.4322 13.585 42.2209L17.3816 41.312L14.5879 38.8815C14.429 38.7437 14.3029 38.5793 14.2167 38.3979C14.1306 38.2164 14.0862 38.0216 14.0862 37.8247C14.0862 37.6279 14.1306 37.4331 14.2167 37.2516C14.3029 37.0701 14.429 36.9057 14.5879 36.768C15.2326 36.1339 16.3548 36.1339 17.0712 36.768L19.7932 39.1774L20.7722 35.838C21.011 35.0138 21.9661 34.5276 22.8734 34.7601C23.8047 34.9715 24.3539 35.8169 24.0673 36.62L23.0406 39.9383L26.861 39.0929C27.8161 38.8815 28.7235 39.3253 29.01 40.1496C29.1053 40.5412 29.0271 40.9503 28.7916 41.2924C28.5562 41.6346 28.1814 41.8837 27.7445 41.9884L23.9718 42.876L26.7416 45.3277C27.4102 45.8984 27.4102 46.8917 26.7416 47.4835C26.0731 48.0753 24.9747 48.0753 24.3061 47.4835L21.5363 45.0107L20.5334 48.3923C20.2946 49.1955 19.3395 49.6604 18.4322 49.4491C17.501 49.2377 16.9995 48.3923 17.2144 47.5892L18.265 44.271L14.4685 45.1375C13.4895 45.3489 12.606 44.8839 12.3672 44.0596ZM43.3367 30.4908C42.501 30.4908 41.6891 30.5965 40.9489 30.829V30.4908C40.9489 26.6442 39.0148 23.1992 35.9823 20.9166C37.0091 15.7385 34.0244 10.4124 28.4131 8.23548C21.7751 5.63585 14.0148 8.29888 11.1017 14.1111C8.95272 18.317 9.90783 22.9667 12.9403 26.2638H12.2956C7.01862 26.2638 2.74451 30.0259 2.74451 34.7179C2.74451 37.1273 3.9384 39.3042 5.77698 40.8471C5.77698 40.8471 7.44842 42.3477 9.14374 40.8471C10.8391 39.3465 9.14374 37.8247 9.14374 37.8247C8.16476 37.085 7.52006 35.9648 7.52006 34.7179C7.52006 33.5968 8.02319 32.5216 8.91878 31.7289C9.81437 30.9362 11.0291 30.4908 12.2956 30.4908H17.0712C17.0712 25.7988 21.3453 22.0368 26.6223 22.0368C29.1554 22.0368 31.5847 22.9274 33.3759 24.5129C35.1671 26.0983 36.1734 28.2487 36.1734 30.4908V34.7179H43.3367C43.97 34.7179 44.5773 34.9405 45.0251 35.3369C45.4729 35.7333 45.7244 36.2708 45.7244 36.8314C45.7244 37.9727 44.65 38.9449 43.3367 38.9449H40.9489C40.9489 38.9449 38.5611 38.9449 38.5611 41.0584C38.5611 43.1719 40.9489 43.1719 40.9489 43.1719H43.3367C45.2365 43.1719 47.0585 42.5039 48.4019 41.3148C49.7453 40.1258 50.5 38.513 50.5 36.8314C50.5 33.3229 47.3004 30.4908 43.3367 30.4908ZM26.6223 17.8097C22.2287 17.8097 18.265 19.5428 15.6624 22.3115C15.0695 21.3168 14.7399 20.2157 14.6985 19.0916C14.6572 17.9675 14.9051 16.8498 15.4236 15.823C15.8698 14.9358 16.5093 14.1351 17.3054 13.4669C18.1015 12.7986 19.0386 12.2758 20.0632 11.9283C21.0878 11.5809 22.1797 11.4156 23.2764 11.442C24.3732 11.4684 25.4534 11.6859 26.4551 12.0821C27.8716 12.6472 29.0834 13.5488 29.956 14.6867C30.8285 15.8247 31.3276 17.1544 31.3978 18.5283C29.9174 18.0633 28.2937 17.8097 26.6223 17.8097Z" fill="white"/>
</svg>
